<mxfile host="app.diagrams.net" modified="2020-12-03T12:10:42.890Z" agent="5.0 (Macintosh; Intel Mac OS X 11_0_0) AppleWebKit/537.36 (KHTML, like Gecko) Chrome/86.0.4240.198 Safari/537.36" etag="Q0mxuBYaWchcreXC-mb8" version="13.10.4" type="github">
  <diagram name="Page-1" id="13e1069c-82ec-6db2-03f1-153e76fe0fe0">
    <mxGraphModel dx="1590" dy="976" grid="1" gridSize="10" guides="1" tooltips="1" connect="1" arrows="1" fold="1" page="1" pageScale="1" pageWidth="1100" pageHeight="850" background="#ffffff" math="0" shadow="0">
      <root>
        <mxCell id="0" />
        <mxCell id="1" parent="0" />
        <mxCell id="7baba1c4bc27f4b0-2" value="lol-learning-web" style="shape=umlLifeline;perimeter=lifelinePerimeter;whiteSpace=wrap;html=1;container=1;collapsible=0;recursiveResize=0;outlineConnect=0;rounded=1;shadow=0;comic=0;labelBackgroundColor=none;strokeWidth=1;fontFamily=Verdana;fontSize=12;align=center;" parent="1" vertex="1">
          <mxGeometry x="500" y="80" width="100" height="810" as="geometry" />
        </mxCell>
        <mxCell id="xmqAta9ANS4_KRpNYRyX-17" style="edgeStyle=orthogonalEdgeStyle;rounded=0;orthogonalLoop=1;jettySize=auto;html=1;" parent="7baba1c4bc27f4b0-2" source="7baba1c4bc27f4b0-10" target="7baba1c4bc27f4b0-2" edge="1">
          <mxGeometry relative="1" as="geometry">
            <Array as="points">
              <mxPoint x="50" y="100" />
              <mxPoint x="50" y="100" />
            </Array>
          </mxGeometry>
        </mxCell>
        <mxCell id="7baba1c4bc27f4b0-10" value="" style="html=1;points=[];perimeter=orthogonalPerimeter;rounded=0;shadow=0;comic=0;labelBackgroundColor=none;strokeWidth=1;fontFamily=Verdana;fontSize=12;align=center;" parent="7baba1c4bc27f4b0-2" vertex="1">
          <mxGeometry x="45" y="100" width="10" height="360" as="geometry" />
        </mxCell>
        <mxCell id="7baba1c4bc27f4b0-3" value="lol-learning-service" style="shape=umlLifeline;perimeter=lifelinePerimeter;whiteSpace=wrap;html=1;container=1;collapsible=0;recursiveResize=0;outlineConnect=0;rounded=1;shadow=0;comic=0;labelBackgroundColor=none;strokeWidth=1;fontFamily=Verdana;fontSize=12;align=center;" parent="1" vertex="1">
          <mxGeometry x="660" y="80" width="100" height="810" as="geometry" />
        </mxCell>
        <mxCell id="7baba1c4bc27f4b0-13" value="" style="html=1;points=[];perimeter=orthogonalPerimeter;rounded=0;shadow=0;comic=0;labelBackgroundColor=none;strokeWidth=1;fontFamily=Verdana;fontSize=12;align=center;" parent="7baba1c4bc27f4b0-3" vertex="1">
          <mxGeometry x="45" y="150" width="10" height="330" as="geometry" />
        </mxCell>
        <mxCell id="17ousJ5c5HN_yryhxuLA-7" value="" style="html=1;points=[];perimeter=orthogonalPerimeter;rounded=0;shadow=0;comic=0;labelBackgroundColor=none;strokeWidth=1;fontFamily=Verdana;fontSize=12;align=center;" vertex="1" parent="7baba1c4bc27f4b0-3">
          <mxGeometry x="45" y="520" width="10" height="190" as="geometry" />
        </mxCell>
        <mxCell id="7baba1c4bc27f4b0-6" value="app-server" style="shape=umlLifeline;perimeter=lifelinePerimeter;whiteSpace=wrap;html=1;container=1;collapsible=0;recursiveResize=0;outlineConnect=0;rounded=1;shadow=0;comic=0;labelBackgroundColor=none;strokeWidth=1;fontFamily=Verdana;fontSize=12;align=center;" parent="1" vertex="1">
          <mxGeometry x="220" y="80" width="100" height="810" as="geometry" />
        </mxCell>
        <mxCell id="7baba1c4bc27f4b0-28" value="" style="html=1;points=[];perimeter=orthogonalPerimeter;rounded=0;shadow=0;comic=0;labelBackgroundColor=none;strokeWidth=1;fontFamily=Verdana;fontSize=12;align=center;" parent="7baba1c4bc27f4b0-6" vertex="1">
          <mxGeometry x="45" y="500" width="10" height="220" as="geometry" />
        </mxCell>
        <mxCell id="7baba1c4bc27f4b0-7" value="lol-classes" style="shape=umlLifeline;perimeter=lifelinePerimeter;whiteSpace=wrap;html=1;container=1;collapsible=0;recursiveResize=0;outlineConnect=0;rounded=1;shadow=0;comic=0;labelBackgroundColor=none;strokeWidth=1;fontFamily=Verdana;fontSize=12;align=center;" parent="1" vertex="1">
          <mxGeometry x="810" y="80" width="100" height="810" as="geometry" />
        </mxCell>
        <mxCell id="17ousJ5c5HN_yryhxuLA-11" value="" style="html=1;points=[];perimeter=orthogonalPerimeter;rounded=0;shadow=0;comic=0;labelBackgroundColor=none;strokeWidth=1;fontFamily=Verdana;fontSize=12;align=center;" vertex="1" parent="7baba1c4bc27f4b0-7">
          <mxGeometry x="45" y="180" width="10" height="190" as="geometry" />
        </mxCell>
        <mxCell id="17ousJ5c5HN_yryhxuLA-12" value="" style="html=1;points=[];perimeter=orthogonalPerimeter;rounded=0;shadow=0;comic=0;labelBackgroundColor=none;strokeWidth=1;fontFamily=Verdana;fontSize=12;align=center;" vertex="1" parent="7baba1c4bc27f4b0-7">
          <mxGeometry x="45" y="510" width="10" height="190" as="geometry" />
        </mxCell>
        <mxCell id="7baba1c4bc27f4b0-8" value="pc" style="shape=umlLifeline;perimeter=lifelinePerimeter;whiteSpace=wrap;html=1;container=1;collapsible=0;recursiveResize=0;outlineConnect=0;rounded=1;shadow=0;comic=0;labelBackgroundColor=none;strokeWidth=1;fontFamily=Verdana;fontSize=12;align=center;" parent="1" vertex="1">
          <mxGeometry x="360" y="80" width="100" height="810" as="geometry" />
        </mxCell>
        <mxCell id="7baba1c4bc27f4b0-9" value="" style="html=1;points=[];perimeter=orthogonalPerimeter;rounded=0;shadow=0;comic=0;labelBackgroundColor=none;strokeWidth=1;fontFamily=Verdana;fontSize=12;align=center;" parent="7baba1c4bc27f4b0-8" vertex="1">
          <mxGeometry x="45" y="100" width="10" height="350" as="geometry" />
        </mxCell>
        <mxCell id="7baba1c4bc27f4b0-17" value="5、查询课程" style="html=1;verticalAlign=bottom;endArrow=block;labelBackgroundColor=none;fontFamily=Verdana;fontSize=12;edgeStyle=elbowEdgeStyle;elbow=vertical;" parent="1" source="7baba1c4bc27f4b0-13" edge="1">
          <mxGeometry y="10" relative="1" as="geometry">
            <mxPoint x="770" y="220" as="sourcePoint" />
            <Array as="points">
              <mxPoint x="720" y="320" />
            </Array>
            <mxPoint as="offset" />
            <mxPoint x="860" y="320" as="targetPoint" />
          </mxGeometry>
        </mxCell>
        <mxCell id="7baba1c4bc27f4b0-11" value="1、查询课程" style="html=1;verticalAlign=bottom;endArrow=block;entryX=0;entryY=0;labelBackgroundColor=none;fontFamily=Verdana;fontSize=12;edgeStyle=elbowEdgeStyle;elbow=vertical;" parent="1" source="7baba1c4bc27f4b0-9" target="7baba1c4bc27f4b0-10" edge="1">
          <mxGeometry relative="1" as="geometry">
            <mxPoint x="480" y="190" as="sourcePoint" />
          </mxGeometry>
        </mxCell>
        <mxCell id="xmqAta9ANS4_KRpNYRyX-8" value="2、参数验证" style="html=1;verticalAlign=bottom;endArrow=block;labelBackgroundColor=none;fontFamily=Verdana;fontSize=12;elbow=vertical;edgeStyle=orthogonalEdgeStyle;curved=1;entryX=1;entryY=0.286;entryPerimeter=0;exitX=1.038;exitY=0.345;exitPerimeter=0;" parent="1" edge="1">
          <mxGeometry relative="1" as="geometry">
            <mxPoint x="558.0000000000001" y="199.99999999999991" as="sourcePoint" />
            <mxPoint x="562.62" y="237.92" as="targetPoint" />
            <Array as="points">
              <mxPoint x="612.62" y="199.9" />
              <mxPoint x="612.62" y="237.9" />
            </Array>
          </mxGeometry>
        </mxCell>
        <mxCell id="xmqAta9ANS4_KRpNYRyX-11" value="3、参数验证错误" style="html=1;verticalAlign=bottom;endArrow=open;dashed=1;endSize=8;" parent="1" target="7baba1c4bc27f4b0-8" edge="1">
          <mxGeometry relative="1" as="geometry">
            <mxPoint x="540" y="280" as="sourcePoint" />
            <mxPoint x="460" y="280" as="targetPoint" />
          </mxGeometry>
        </mxCell>
        <mxCell id="xmqAta9ANS4_KRpNYRyX-7" value="4、查询课程" style="html=1;verticalAlign=bottom;endArrow=block;" parent="1" edge="1">
          <mxGeometry width="80" relative="1" as="geometry">
            <mxPoint x="558" y="293" as="sourcePoint" />
            <mxPoint x="707.5" y="293" as="targetPoint" />
            <Array as="points">
              <mxPoint x="568" y="293" />
              <mxPoint x="688" y="293" />
            </Array>
          </mxGeometry>
        </mxCell>
        <mxCell id="xmqAta9ANS4_KRpNYRyX-13" value="7、返回结果" style="html=1;verticalAlign=bottom;endArrow=open;dashed=1;endSize=8;labelBackgroundColor=none;fontFamily=Verdana;fontSize=12;edgeStyle=elbowEdgeStyle;elbow=vertical;" parent="1" edge="1">
          <mxGeometry relative="1" as="geometry">
            <mxPoint x="549.5" y="432" as="targetPoint" />
            <Array as="points">
              <mxPoint x="620" y="432" />
              <mxPoint x="645" y="402" />
              <mxPoint x="675" y="402" />
            </Array>
            <mxPoint x="700" y="432" as="sourcePoint" />
          </mxGeometry>
        </mxCell>
        <mxCell id="xmqAta9ANS4_KRpNYRyX-18" value="8、返回课程信息" style="html=1;verticalAlign=bottom;endArrow=open;dashed=1;endSize=8;labelBackgroundColor=none;fontFamily=Verdana;fontSize=12;edgeStyle=elbowEdgeStyle;elbow=vertical;exitX=-0.2;exitY=0.903;exitDx=0;exitDy=0;exitPerimeter=0;" parent="1" edge="1">
          <mxGeometry relative="1" as="geometry">
            <mxPoint x="409.5" y="458" as="targetPoint" />
            <Array as="points">
              <mxPoint x="430" y="458" />
              <mxPoint x="623" y="438" />
            </Array>
            <mxPoint x="543" y="458.9000000000001" as="sourcePoint" />
          </mxGeometry>
        </mxCell>
        <mxCell id="17ousJ5c5HN_yryhxuLA-1" value="app" style="shape=umlLifeline;perimeter=lifelinePerimeter;whiteSpace=wrap;html=1;container=1;collapsible=0;recursiveResize=0;outlineConnect=0;rounded=1;shadow=0;comic=0;labelBackgroundColor=none;strokeWidth=1;fontFamily=Verdana;fontSize=12;align=center;" vertex="1" parent="1">
          <mxGeometry x="80" y="80" width="100" height="810" as="geometry" />
        </mxCell>
        <mxCell id="17ousJ5c5HN_yryhxuLA-2" value="" style="html=1;points=[];perimeter=orthogonalPerimeter;rounded=0;shadow=0;comic=0;labelBackgroundColor=none;strokeWidth=1;fontFamily=Verdana;fontSize=12;align=center;" vertex="1" parent="17ousJ5c5HN_yryhxuLA-1">
          <mxGeometry x="45" y="510" width="10" height="200" as="geometry" />
        </mxCell>
        <mxCell id="17ousJ5c5HN_yryhxuLA-3" value="6、返回结果" style="html=1;verticalAlign=bottom;endArrow=open;dashed=1;endSize=8;labelBackgroundColor=none;fontFamily=Verdana;fontSize=12;edgeStyle=elbowEdgeStyle;elbow=vertical;" edge="1" parent="1">
          <mxGeometry relative="1" as="geometry">
            <mxPoint x="720" y="390" as="targetPoint" />
            <Array as="points">
              <mxPoint x="790.5" y="390" />
              <mxPoint x="815.5" y="360" />
              <mxPoint x="845.5" y="360" />
            </Array>
            <mxPoint x="870.5" y="390" as="sourcePoint" />
          </mxGeometry>
        </mxCell>
        <mxCell id="17ousJ5c5HN_yryhxuLA-4" value="1、查询课程" style="html=1;verticalAlign=bottom;endArrow=block;entryX=0;entryY=0;labelBackgroundColor=none;fontFamily=Verdana;fontSize=12;edgeStyle=elbowEdgeStyle;elbow=vertical;" edge="1" parent="1">
          <mxGeometry relative="1" as="geometry">
            <mxPoint x="140" y="610" as="sourcePoint" />
            <mxPoint x="270" y="610.0000000000017" as="targetPoint" />
          </mxGeometry>
        </mxCell>
        <mxCell id="17ousJ5c5HN_yryhxuLA-5" value="2、查询课程" style="html=1;verticalAlign=bottom;endArrow=block;labelBackgroundColor=none;fontFamily=Verdana;fontSize=12;edgeStyle=elbowEdgeStyle;elbow=vertical;" edge="1" parent="1" target="7baba1c4bc27f4b0-3">
          <mxGeometry relative="1" as="geometry">
            <mxPoint x="270" y="630" as="sourcePoint" />
            <mxPoint x="400" y="630.0000000000017" as="targetPoint" />
          </mxGeometry>
        </mxCell>
        <mxCell id="17ousJ5c5HN_yryhxuLA-9" value="5、返回结果" style="html=1;verticalAlign=bottom;endArrow=open;dashed=1;endSize=8;labelBackgroundColor=none;fontFamily=Verdana;fontSize=12;edgeStyle=elbowEdgeStyle;elbow=vertical;" edge="1" parent="1" target="7baba1c4bc27f4b0-6">
          <mxGeometry relative="1" as="geometry">
            <mxPoint x="550" y="730" as="targetPoint" />
            <Array as="points">
              <mxPoint x="620.5" y="730" />
              <mxPoint x="645.5" y="700" />
              <mxPoint x="675.5" y="700" />
            </Array>
            <mxPoint x="700.5" y="730" as="sourcePoint" />
          </mxGeometry>
        </mxCell>
        <mxCell id="17ousJ5c5HN_yryhxuLA-10" value="6、返回课程信息" style="html=1;verticalAlign=bottom;endArrow=open;dashed=1;endSize=8;labelBackgroundColor=none;fontFamily=Verdana;fontSize=12;edgeStyle=elbowEdgeStyle;elbow=vertical;exitX=-0.2;exitY=0.903;exitDx=0;exitDy=0;exitPerimeter=0;" edge="1" parent="1">
          <mxGeometry relative="1" as="geometry">
            <mxPoint x="130" y="770" as="targetPoint" />
            <Array as="points">
              <mxPoint x="150.5" y="770" />
              <mxPoint x="343.5" y="750" />
            </Array>
            <mxPoint x="263.5" y="770.9000000000001" as="sourcePoint" />
          </mxGeometry>
        </mxCell>
        <mxCell id="17ousJ5c5HN_yryhxuLA-13" value="3、查询课程" style="html=1;verticalAlign=bottom;endArrow=block;labelBackgroundColor=none;fontFamily=Verdana;fontSize=12;edgeStyle=elbowEdgeStyle;elbow=vertical;" edge="1" parent="1">
          <mxGeometry relative="1" as="geometry">
            <mxPoint x="720" y="670" as="sourcePoint" />
            <mxPoint x="860" y="670" as="targetPoint" />
          </mxGeometry>
        </mxCell>
        <mxCell id="17ousJ5c5HN_yryhxuLA-14" value="4、返回结果" style="html=1;verticalAlign=bottom;endArrow=open;dashed=1;endSize=8;labelBackgroundColor=none;fontFamily=Verdana;fontSize=12;edgeStyle=elbowEdgeStyle;elbow=vertical;" edge="1" parent="1">
          <mxGeometry relative="1" as="geometry">
            <mxPoint x="720" y="710" as="targetPoint" />
            <Array as="points">
              <mxPoint x="790.5" y="710" />
              <mxPoint x="815.5" y="680" />
              <mxPoint x="845.5" y="680" />
            </Array>
            <mxPoint x="870.5" y="710" as="sourcePoint" />
          </mxGeometry>
        </mxCell>
      </root>
    </mxGraphModel>
  </diagram>
</mxfile>
